<svg xmlns="http://www.w3.org/2000/svg" width="157.243" height="60" viewBox="0 0 157.243 60"><defs><style>.a,.b{fill:#fff;}.a{fill-rule:evenodd;}.b{font-size:24px;font-family:DMSans-Bold, DM Sans;font-weight:700;}</style></defs><g transform="translate(-29.757 -30)"><path class="a" d="M208.944,211.7c-.662,1.636-3.229-1.056-3.229-1.056s3.891-.58,3.229,1.056Zm17.133,4.37q-.025-5.162.006-10.324a.825.825,0,0,0-.413-.75,25.691,25.691,0,0,0-7.206-3.343,43.079,43.079,0,0,0-6.365-1.433l5.726-9.887a5.975,5.975,0,0,0-4.409,2.422c-1.506-1.351-2.484-.311-2.484-.311,1.444,1.646-.248,3.292-.248,3.292-2.049,1.848-4.471.186-4.471.186-2.515-3.105.932-4.534.932-4.534a1.606,1.606,0,0,0-1.8-1.367,4.071,4.071,0,0,0-2.049-4.658,4.071,4.071,0,0,0-2.049,4.658,1.606,1.606,0,0,0-1.8,1.367s3.446,1.428.932,4.534c0,0-2.422,1.662-4.471-.186,0,0-1.692-1.646-.248-3.292,0,0-.978-1.041-2.484.311a5.975,5.975,0,0,0-4.409-2.422l5.722,9.88a37.268,37.268,0,0,0-10.425,2.976l-.1.048c.313.036.516.078.516.078l10,3.292-4.968-3.292a36.867,36.867,0,0,1,11.054,1.3,5.069,5.069,0,0,1-.745-3.6c2.856,5.549,6.458,5.652,6.458,5.652-1.138-2.712-.062-4.037-.062-4.037a12.022,12.022,0,0,0,3.415,4.907,7.717,7.717,0,0,1,2.36,2.919l2.484,1.366-.186-1.739a7.13,7.13,0,0,0,7.017,2.3,7.934,7.934,0,0,1-2.236,6.4c.528-4.037-2.236-1.3-2.236-1.3,1.211-3.478-2.857-.745-2.857-.745.373-2.981-3.54-2.236-3.54-2.236-3.974.932-2.546,4.286-2.546,4.286,1.832,2.484,4.906.5,4.906.5-.093,1.18.311,1.491.311,1.491.559-.87,2.484-.311,2.484-.311-1.583,4.534-4.036,4.845-4.036,4.845,2.546-6.056-11.3-1.366-11.3-1.366-.807-.839.994-4.037.994-4.037-10.371,4.224-9.315,18.634-9.315,18.634l-.1.229q.521.4,1.059.79a55.8,55.8,0,0,0,9.773,5.533c.176.079.335.186.5.28h.2c.211-.115.414-.244.635-.344a51.386,51.386,0,0,0,11.962-7.278,26.865,26.865,0,0,0,9.353-14.348,30.2,30.2,0,0,0,.763-7.324Zm-22.815-26.327a.9.9,0,1,1-.9.9.9.9,0,0,1,.9-.9Zm0,6.956a.9.9,0,1,1-.9.9.9.9,0,0,1,.9-.9Zm-22.818,10.641q0-.82,0-1.64s0-.008,0-.013c.644.138,6.273,1.388,8.818,3.465a53.778,53.778,0,0,0-8.815-1.812Zm8.94,9.576s-5.695.341-8.829,2.376q-.069-.846-.087-1.7c1.518-.631,5.7-2.1,8.916-.673Zm.994,8.137s-4.347,2.764-5.9,5.466c0,0-.036.115-.09.314-.41-.644-.784-1.3-1.126-1.956a9.506,9.506,0,0,1,7.115-3.823Zm.227,12.726q-.451-.377-.886-.766l1.4-2.394Z" transform="translate(-150.684 -155.36)"/><text class="b" transform="translate(82 69)"><tspan x="0" y="0">Wonders</tspan></text></g></svg>