<svg xmlns="http://www.w3.org/2000/svg" width="120.004" height="120" viewBox="0 0 120.004 120"><defs><style>.a{fill:#43ccb0;}.b{fill:#fdc9a6;}.c{fill:#e2e2e2;}.d{fill:#cbcbcb;}.e{fill:#f6bb92;}.f{fill:#fbb540;}.g{fill:#2a2a2a;}.h{opacity:0.4;}.i{fill:#656666;}.j{fill:#a4a4a4;}.k{fill:#04957c;}.l{fill:#2ad3b3;}</style></defs><g transform="translate(-23.989 -23.998)"><path d="M167.034,80a31.034,31.034,0,0,1,31.034,31.034v14.483H136V111.034A31.034,31.034,0,0,1,167.034,80Z" transform="translate(-83.043 -41.519)"/><path class="a" d="M90.621,416h57.931a18.621,18.621,0,0,1,18.621,18.621H72A18.621,18.621,0,0,1,90.621,416Z" transform="translate(-35.595 -290.623)"/><path class="b" d="M224.827,370.345V360h-20.69v10.345A4.138,4.138,0,0,1,200,374.483a10.345,10.345,0,0,0,10.345,10.345h8.276a10.345,10.345,0,0,0,10.345-10.345A4.138,4.138,0,0,1,224.827,370.345Z" transform="translate(-130.492 -249.106)"/><path class="b" d="M236.69,360v5.793a22.793,22.793,0,0,1-20.69,0V360Z" transform="translate(-142.354 -249.106)"/><path class="c" d="M40.543,314.068a6.185,6.185,0,0,0-2.33.454,8.276,8.276,0,1,0,0,11.506,6.207,6.207,0,1,0,2.33-11.96Z" transform="translate(0 -213.519)"/><path class="d" d="M48.833,28.136a8.274,8.274,0,0,0-2.316.331,6.207,6.207,0,0,0-11.076-1.774,8.276,8.276,0,1,0-3.159,15.926c.1,0,.2,0,.294-.007a11.736,11.736,0,0,0,6.947,2.076,12.743,12.743,0,0,0,5.235-1.074,8.276,8.276,0,1,0,4.075-15.478Z" transform="translate(-0.014 0)"/><path class="b" d="M190.759,209.931A22.759,22.759,0,0,1,168,187.172V162.345a10.962,10.962,0,0,0,9.4-5.322L180.414,152a35.319,35.319,0,0,0,24.974,10.345h8.129v24.827A22.759,22.759,0,0,1,190.759,209.931Z" transform="translate(-106.767 -94.898)"/><path class="e" d="M236.69,360v5.793a22.793,22.793,0,0,1-20.69,0V360Z" transform="translate(-142.354 -249.106)"/><path class="f" d="M207.586,288H162.069a2.069,2.069,0,1,0,0,4.138h45.517a2.069,2.069,0,0,0,0-4.138Z" transform="translate(-100.836 -195.726)"/><circle class="g" cx="4.138" cy="4.138" r="4.138" transform="translate(69.508 75.722)"/><circle class="g" cx="4.138" cy="4.138" r="4.138" transform="translate(90.198 75.722)"/><path class="b" d="M144.276,224v16.552a8.276,8.276,0,0,1,0-16.552Z" transform="translate(-83.043 -148.278)"/><path class="b" d="M8.276,0V16.552A8.276,8.276,0,0,1,8.276,0Z" transform="translate(115.025 92.274) rotate(180)"/><path class="g" d="M194.345,214.207h-8.276a2.069,2.069,0,1,1,0-4.138h7.419l1.463-1.463a2.069,2.069,0,1,1,2.926,2.926l-2.069,2.069a2.069,2.069,0,0,1-1.463.606Z" transform="translate(-118.629 -136.416)"/><path class="g" d="M284.414,214.207h-8.276a2.069,2.069,0,0,1-1.463-.606l-2.069-2.069a2.069,2.069,0,0,1,2.926-2.926l1.463,1.463h7.419a2.069,2.069,0,0,1,0,4.138Z" transform="translate(-183.871 -136.416)"/><path class="h" d="M120,464.276v-6.207a2.069,2.069,0,0,1,4.138,0v6.207Z" transform="translate(-71.181 -320.278)"/><path class="h" d="M376,464.276v-6.207a2.069,2.069,0,0,1,4.138,0v6.207Z" transform="translate(-260.975 -320.278)"/><path class="d" d="M414.727,327.768a6.205,6.205,0,0,0-8.514-5.246A8.276,8.276,0,1,0,405,335.063a6.207,6.207,0,1,0,9.729-7.295Z" transform="translate(-272.827 -219.45)"/><path class="c" d="M400.63,38.724a8.292,8.292,0,0,0-4.681-5.765,6.889,6.889,0,0,0-13.606-.726c-.047,0-.092,0-.139,0a6.207,6.207,0,1,0,2.826,11.733,8.265,8.265,0,0,0,8.986,4.687,6.207,6.207,0,1,0,6.614-9.923Z" transform="translate(-260.971 -2.023)"/><circle class="d" cx="2.069" cy="2.069" r="2.069" transform="translate(123.301 81.929)"/><circle class="i" cx="2.069" cy="2.069" r="2.069" transform="translate(55.026 110.894)"/><circle class="d" cx="2.069" cy="2.069" r="2.069" transform="translate(108.819 106.757)"/><circle class="d" cx="2.069" cy="2.069" r="2.069" transform="translate(121.232 52.964)"/><circle class="i" cx="2.069" cy="2.069" r="2.069" transform="translate(133.646 69.515)"/><circle class="i" cx="2.069" cy="2.069" r="2.069" transform="translate(32.267 71.584)"/><circle class="d" cx="2.069" cy="2.069" r="2.069" transform="translate(42.612 88.136)"/><circle class="d" cx="2.069" cy="2.069" r="2.069" transform="translate(23.991 88.136)"/><circle class="j" cx="2.069" cy="2.069" r="2.069" transform="translate(36.405 34.343)"/><circle class="d" cx="2.069" cy="2.069" r="2.069" transform="translate(42.612 59.171)"/><circle class="d" cx="2.069" cy="2.069" r="2.069" transform="translate(137.784 86.067)"/><circle class="i" cx="2.069" cy="2.069" r="2.069" transform="translate(83.991 28.136)"/><path class="k" d="M228.965,304.25l-5.009,2.147a24.05,24.05,0,0,1-18.948,0L200,304.25V287.7l5.957-1.7a31.036,31.036,0,0,1,17.052,0l5.957,1.7Z" transform="translate(-130.492 -193.355)"/><g transform="translate(75.715 96.412)"><path class="l" d="M238.483,308.138H226.069a2.069,2.069,0,1,1,0-4.138h12.414a2.069,2.069,0,0,1,0,4.138Z" transform="translate(-224 -304)"/><path class="l" d="M238.483,340.138H226.069a2.069,2.069,0,0,1,0-4.138h12.414a2.069,2.069,0,0,1,0,4.138Z" transform="translate(-224 -327.724)"/></g></g></svg>